<svg xmlns="http://www.w3.org/2000/svg" xmlns:xlink="http://www.w3.org/1999/xlink" width="80" height="80" viewBox="0 0 80 80"><defs><clipPath id="a"><rect width="82" height="82" transform="translate(0.469 0.469)" fill="none"/></clipPath><clipPath id="b"><rect width="79" height="78" transform="translate(-0.417 -0.244)" fill="none"/></clipPath><clipPath id="c"><rect width="28.054" height="9.165" transform="translate(0 0)" fill="#e11824"/></clipPath><clipPath id="e"><rect width="80" height="80"/></clipPath></defs><g id="d" clip-path="url(#e)"><g transform="translate(-1537.469 -1319.469)"><g transform="translate(1537.885 1321.713)"><g transform="translate(0 0)" clip-path="url(#b)"><path d="M68.872,9.3A1.167,1.167,0,0,0,67.7,10.458v1.224c-3.212,0-8.014-1.224-14.016-1.224a11.7,11.7,0,0,0-7.128,2.879,22.379,22.379,0,0,0-3.653,3.7,20.481,20.481,0,0,0-5.56-.738A19.571,19.571,0,0,0,28.5,18.315a11.943,11.943,0,0,0-7.506-3.187c-6,0-10.792,1.226-14,1.226V15.128a1.167,1.167,0,0,0-1.172-1.162H1.162a1.168,1.168,0,0,0,0,2.337H4.655V32.638H1.162a1.167,1.167,0,0,0,0,2.334H5.817A1.166,1.166,0,0,0,6.988,33.81a15.342,15.342,0,0,1,3.836,1.621,14.759,14.759,0,0,0,6.654,1.876h1.347c.651,4.826,3.148,8.293,5.427,11.032,1.217,1.463,2.384,2.74,3.191,3.886a5.674,5.674,0,0,1,1.222,2.881,3.491,3.491,0,0,0,1.671,5.341v6.047a3.527,3.527,0,0,0,2.339,3.3v1.374a3.521,3.521,0,0,0,3.506,3.5h2.327a3.523,3.523,0,0,0,3.508-3.5V69.788a3.525,3.525,0,0,0,2.337-3.3V60.446a3.52,3.52,0,0,0,2.334-3.294,3.451,3.451,0,0,0-.668-2.029,5.9,5.9,0,0,1,1.343-3.054c.875-1.209,2.115-2.555,3.394-4.121,2.559-3.131,5.265-7.233,5.265-13.113a20.774,20.774,0,0,0-.128-2.2h1.318a14.733,14.733,0,0,0,6.647-1.869A15.532,15.532,0,0,1,67.7,29.14,1.169,1.169,0,0,0,68.872,30.3h4.645a1.168,1.168,0,1,0,0-2.337H70.034V11.63h3.483a1.167,1.167,0,1,0,0-2.334Zm-15.187,3.5c5.674,0,10.256,1.222,14.016,1.222V26.805c-1.747,0-3.184,1.017-4.887,1.869a12.609,12.609,0,0,1-5.6,1.63H50.773a1.749,1.749,0,0,1,0-3.5h4.1a1.168,1.168,0,0,0,0-2.336H53.055a17.585,17.585,0,0,0-7.807-6.6,19.884,19.884,0,0,1,2.76-2.7,9.6,9.6,0,0,1,5.678-2.378ZM20.993,17.465a9.327,9.327,0,0,1,5.368,2.129,17.459,17.459,0,0,0-6.872,9.539l-.821.007a1.168,1.168,0,1,0,0,2.337h4.087a1.748,1.748,0,0,1,0,3.5H17.478a12.591,12.591,0,0,1-5.6-1.628c-1.7-.852-3.139-1.869-4.886-1.869V18.689c3.76,0,8.33-1.224,14-1.224Zm15.178,1.208v4.784a3.976,3.976,0,0,0-1.162-.159,4.67,4.67,0,1,0,0,9.34,4.837,4.837,0,0,0,1.162-.139v2.473H26.438a4.032,4.032,0,0,0,.4-1.748,4.1,4.1,0,0,0-4.082-4.085h-.807A15.448,15.448,0,0,1,36.171,18.673Zm2.336,0a15.732,15.732,0,0,1,11.7,5.835,4.085,4.085,0,0,0,.567,8.131h2.77a18.567,18.567,0,0,1,.151,2.32l-5.678.014a1.167,1.167,0,0,0-.871,1.946,2.345,2.345,0,0,1,.595,1.555,2.331,2.331,0,1,1-4.661,0,2.344,2.344,0,0,1,.592-1.557,1.166,1.166,0,0,0-.869-1.946H38.507V30.58a1.169,1.169,0,0,0-1.949-.871,2.341,2.341,0,1,1,0-3.473,1.169,1.169,0,0,0,1.949-.871ZM21.184,37.306H36.171v2.482a3.967,3.967,0,0,0-1.162-.144,4.67,4.67,0,1,0,0,9.341,4.2,4.2,0,0,0,1.162-.153v4.821H31.51a3.468,3.468,0,0,0-.713.075,9.412,9.412,0,0,0-1.45-2.849c-.937-1.33-2.119-2.623-3.294-4.035-2.143-2.576-4.242-5.493-4.869-9.539Zm17.322,0h2.359a4.78,4.78,0,0,0-.128,1.167,4.668,4.668,0,1,0,9.336,0,4,4,0,0,0-.148-1.167h3.581a18.717,18.717,0,0,1-4.563,9.161c-1.222,1.5-2.479,2.848-3.481,4.232a9.668,9.668,0,0,0-1.573,3.027,3.487,3.487,0,0,0-.711-.073H38.506V46.915a1.169,1.169,0,0,0-1.949-.871,2.331,2.331,0,1,1,0-3.471,1.169,1.169,0,0,0,1.949-.871ZM31.5,55.981H43.18a1.167,1.167,0,1,1,0,2.334H31.509a1.161,1.161,0,0,1-1.174-1.162A1.192,1.192,0,0,1,31.5,55.981m1.176,4.67h9.341v5.842a1.139,1.139,0,0,1-1.172,1.162h-7a1.14,1.14,0,0,1-1.172-1.162Zm2.334,9.341h4.673v1.172a1.141,1.141,0,0,1-1.174,1.162H36.179a1.14,1.14,0,0,1-1.172-1.162Z" transform="translate(1.768 1.794)"/></g></g><g transform="translate(1563.332 1320.144)"><g transform="translate(0 0)" clip-path="url(#c)"><path d="M72.9,0a1.538,1.538,0,0,0-1.5,1.524V6.2a1.532,1.532,0,0,0,3.064,0V1.524A1.54,1.54,0,0,0,72.9,0Z" transform="translate(-58.909 0)" fill="#e11824"/><path d="M1.464,15.954A1.537,1.537,0,0,0,.451,18.573l3.3,3.3a1.53,1.53,0,0,0,2.167-2.161l-3.3-3.309a1.533,1.533,0,0,0-1.16-.452Z" transform="translate(0 -13.162)" fill="#e11824"/><path d="M128.815,16.011a1.535,1.535,0,0,0-1.085.442l-3.3,3.31a1.531,1.531,0,0,0,2.17,2.161l3.3-3.3a1.526,1.526,0,0,0-1.085-2.61Z" transform="translate(-102.298 -13.21)" fill="#e11824"/></g></g></g></g></svg>