<svg xmlns="http://www.w3.org/2000/svg" xmlns:xlink="http://www.w3.org/1999/xlink" width="80" height="80" viewBox="0 0 80 80"><defs><clipPath id="a"><rect width="62.293" height="67.943" stroke="#000" stroke-width="1"/></clipPath><clipPath id="c"><rect width="80" height="80"/></clipPath></defs><g id="b" clip-path="url(#c)"><g transform="translate(9.493 6.029)"><g clip-path="url(#a)"><path d="M62.07,37.168l-8.325-4.089V1.635A1.65,1.65,0,0,0,52.109,0H1.635A1.65,1.65,0,0,0,0,1.635v58.5a7.916,7.916,0,0,0,7.879,7.805H53.224A7.883,7.883,0,0,0,61.1,60.063a7.71,7.71,0,0,0-3.122-6.244.273.273,0,0,0-.223-.074H53.744V33.9l8.028,3.94a.405.405,0,0,0,.52-.149.578.578,0,0,0-.223-.52ZM.744,60.137V1.636A.859.859,0,0,1,1.636.744H52.109A.859.859,0,0,1,53,1.636V32.708L49.581,31a10.062,10.062,0,0,0,.372-7.359A10.019,10.019,0,0,0,40.438,16.8a10.036,10.036,0,1,0,8.846,14.793l3.791,1.858V53.67H12.414a.409.409,0,0,0-.372.223c-.074.149,0,.3.149.446a7.041,7.041,0,0,1,2.825,5.649,7.138,7.138,0,0,1-7.136,7.136A7.012,7.012,0,0,1,.744,60.137ZM48.764,31a9.285,9.285,0,1,1-8.325-13.38,8.709,8.709,0,0,1,4.089.966A9.307,9.307,0,0,1,48.764,31Zm8.846,23.49A7.1,7.1,0,0,1,53.224,67.2H11.15a7.847,7.847,0,0,0,4.534-7.136,7.413,7.413,0,0,0-2.379-5.575Z"/><path d="M53.224,68.443H7.879A8.3,8.3,0,0,1,2,66.011,8.429,8.429,0,0,1-.5,60.146V1.635A2.119,2.119,0,0,1,.13.13,2.119,2.119,0,0,1,1.635-.5H52.109a2.119,2.119,0,0,1,1.506.63,2.119,2.119,0,0,1,.63,1.506V32.768l8.673,4.259-.2.2a1.374,1.374,0,0,1,.075.461v.152l-.084.126a.938.938,0,0,1-.784.416h0a.747.747,0,0,1-.414-.116L54.244,34.7V53.245h3.514a.768.768,0,0,1,.544.19,8.182,8.182,0,0,1,3.3,6.629A8.389,8.389,0,0,1,53.224,68.443Zm-43.681-1h1.549l-.107-.478A7.577,7.577,0,0,1,9.543,67.443Zm3.384-.743h40.3a6.6,6.6,0,0,0,4.21-11.712H14.463a8.016,8.016,0,0,1,1.722,5.075A8.305,8.305,0,0,1,12.928,66.7ZM1.244,59.828v.309A6.5,6.5,0,0,0,7.87,66.625h.009a6.644,6.644,0,0,0,6.636-6.636,6.505,6.505,0,0,0-2.625-5.249l-.028-.021-.025-.025a.84.84,0,0,1-.243-1.023.908.908,0,0,1,.819-.5H52.575V33.763L49.488,32.25a10.428,10.428,0,0,1-3.705,3.669,10.606,10.606,0,0,1-5.344,1.453,10.417,10.417,0,0,1-7.522-3.162A10.6,10.6,0,0,1,30.7,30.853,10.534,10.534,0,0,1,40.438,16.3a10.869,10.869,0,0,1,4.674,1.089l.01,0a10.718,10.718,0,0,1,5.3,6.079l0,.008a10.582,10.582,0,0,1-.2,7.28L52.5,31.9V1.636a.36.36,0,0,0-.392-.392H1.636a.36.36,0,0,0-.392.392Zm39.2-41.711a8.643,8.643,0,0,0-6.319,2.707,8.756,8.756,0,0,0,.025,12.223A8.744,8.744,0,0,0,45.008,34.4a8.943,8.943,0,0,0,3.3-3.618A8.807,8.807,0,0,0,44.3,19.031l-.01-.005A8.255,8.255,0,0,0,40.439,18.117Z"/><path d="M50.214,100.423H89.983a.372.372,0,0,0,0-.744H50.214a.372.372,0,1,0,0,.744" transform="translate(-43.226 -86.447)"/><path d="M89.983,100.923H50.214a.872.872,0,1,1,0-1.744H89.983a.872.872,0,1,1,0,1.744Z" transform="translate(-43.226 -86.447)"/><path d="M50.214,200.1h20.74a.372.372,0,1,0,0-.744H50.214a.372.372,0,0,0,0,.744Z" transform="translate(-43.226 -172.896)"/><path d="M70.953,200.6H50.214a.872.872,0,0,1,0-1.744h20.74a.872.872,0,0,1,0,1.744Z" transform="translate(-43.226 -172.896)"/><path d="M50.214,300.343H89.983a.372.372,0,0,0,0-.744H50.214a.372.372,0,1,0,0,.744" transform="translate(-43.226 -259.83)"/><path d="M89.983,300.843H50.214a.872.872,0,0,1,0-1.744H89.983a.872.872,0,1,1,0,1.744Z" transform="translate(-43.226 -259.83)"/><path d="M268.05,187.041h-8.1a1.809,1.809,0,0,0-1.784,1.784v.521a1.809,1.809,0,0,0,1.784,1.784h8.1a1.809,1.809,0,0,0,1.784-1.784v-.521a1.809,1.809,0,0,0-1.784-1.784m1.041,2.3a1.016,1.016,0,0,1-1.041,1.041h-8.1a1.016,1.016,0,0,1-1.041-1.041v-.521a1.016,1.016,0,0,1,1.041-1.041h8.1a1.016,1.016,0,0,1,1.041,1.041Z" transform="translate(-223.894 -162.213)" fill="#e11824"/><path d="M259.947,186.541h8.1a2.315,2.315,0,0,1,2.284,2.284v.521a2.315,2.315,0,0,1-2.284,2.284h-8.1a2.315,2.315,0,0,1-2.284-2.284v-.521A2.315,2.315,0,0,1,259.947,186.541Zm8.1,3.345a.517.517,0,0,0,.541-.541v-.521a.517.517,0,0,0-.541-.541h-8.1a.517.517,0,0,0-.541.541v.521a.517.517,0,0,0,.541.541Z" transform="translate(-223.894 -162.213)" fill="#e11824"/><path d="M50.214,249.943H70.061a.372.372,0,1,0,0-.744H50.214a.372.372,0,1,0,0,.744Z" transform="translate(-43.226 -216.12)"/><path d="M70.061,250.443H50.214a.872.872,0,1,1,0-1.744H70.061a.872.872,0,1,1,0,1.744Z" transform="translate(-43.226 -216.12)"/><path d="M50.214,150.263H70.061a.372.372,0,1,0,0-.744H50.214a.372.372,0,1,0,0,.744Z" transform="translate(-43.226 -129.672)"/><path d="M70.061,150.763H50.214a.872.872,0,1,1,0-1.744H70.061a.872.872,0,1,1,0,1.744Z" transform="translate(-43.226 -129.672)"/><path d="M50.214,50.581H70.061a.372.372,0,1,0,0-.744H50.214a.372.372,0,1,0,0,.743Z" transform="translate(-43.226 -43.222)"/><path d="M70.061,51.081H50.214a.872.872,0,1,1,0-1.743H70.061a.872.872,0,1,1,0,1.744Z" transform="translate(-43.226 -43.222)"/><path d="M70.432,349.812a.351.351,0,0,0-.372-.372H50.213a.372.372,0,1,0,0,.744H70.06a.4.4,0,0,0,.372-.372" transform="translate(-43.225 -303.055)"/><path d="M70.06,350.684H50.213a.872.872,0,1,1,0-1.744H70.06a.853.853,0,0,1,.872.872A.9.9,0,0,1,70.06,350.684Z" transform="translate(-43.225 -303.055)"/></g></g></g></svg>