<svg xmlns="http://www.w3.org/2000/svg" xmlns:xlink="http://www.w3.org/1999/xlink" width="80" height="80" viewBox="0 0 80 80"><defs><clipPath id="a"><rect width="62.6" height="59.687" fill="none"/></clipPath><clipPath id="c"><rect width="80" height="80"/></clipPath></defs><g id="b" clip-path="url(#c)"><g transform="translate(8.7 10.157)" clip-path="url(#a)"><path d="M55,5.078h-5.82V2.357a2.357,2.357,0,0,0-4.715,0v2.72H18.13V2.357a2.357,2.357,0,0,0-4.715,0v2.72H7.6a7.6,7.6,0,0,0-7.6,7.6V52.091a7.6,7.6,0,0,0,7.6,7.6H55a7.6,7.6,0,0,0,7.6-7.6V12.674a7.6,7.6,0,0,0-7.6-7.6ZM7.6,9.793h5.82V15.56a2.357,2.357,0,0,0,4.715,0V9.793H44.47V15.56a2.357,2.357,0,1,0,4.715,0V9.793H55a2.884,2.884,0,0,1,2.881,2.881v10.1H4.716v-10.1A2.884,2.884,0,0,1,7.6,9.793ZM55,54.972H7.6a2.884,2.884,0,0,1-2.881-2.881V27.484h53.17V52.091A2.884,2.884,0,0,1,55,54.972Z"/><path d="M185.789,267.4l-10.239,9.789-4.845-4.844a2.357,2.357,0,0,0-3.333,3.333l6.475,6.475a2.358,2.358,0,0,0,3.3.037l11.9-11.382a2.358,2.358,0,1,0-3.259-3.408Z" transform="translate(-146.724 -234.809)" fill="#e11824"/></g></g></svg>