<svg xmlns="http://www.w3.org/2000/svg" xmlns:xlink="http://www.w3.org/1999/xlink" width="80" height="80" viewBox="0 0 80 80"><defs><clipPath id="a"><rect width="76" height="76" transform="translate(-0.271 -0.271)" fill="none"/></clipPath><clipPath id="c"><rect width="80" height="80"/></clipPath></defs><g id="b" clip-path="url(#c)"><g transform="translate(2.297 2.293)"><g transform="translate(-0.025 -0.022)" clip-path="url(#a)"><path d="M220.285,7.723V.942a.943.943,0,1,0-1.886,0V7.724a.943.943,0,1,0,1.886,0Z" transform="translate(-181.612 0.023)" fill="#e11824"/><path d="M57.858,59.173a.943.943,0,0,0,1.333-1.333l-4.8-4.8a.942.942,0,0,0-1.333,1.333Z" transform="translate(-43.878 -43.864)" fill="#e11824"/><path d="M.943,220.279H7.725a.943.943,0,1,0,0-1.886H.943a.943.943,0,1,0,0,1.886" transform="translate(0.024 -181.609)" fill="#e11824"/><path d="M53.058,361.933a.943.943,0,0,0,1.333,0l4.8-4.8a.942.942,0,0,0-1.333-1.333l-4.8,4.8A.941.941,0,0,0,53.058,361.933Z" transform="translate(-43.873 -295.662)" fill="#e11824"/><path d="M218.4,397.444v6.781a.943.943,0,1,0,1.886,0v-6.782a.943.943,0,1,0-1.886,0Z" transform="translate(-181.615 -329.736)" fill="#e11824"/><path d="M360.608,361.933a.943.943,0,0,0,1.333-1.333l-4.8-4.8a.942.942,0,0,0-1.333,1.333Z" transform="translate(-295.666 -295.662)" fill="#e11824"/><path d="M404.236,218.4h-6.782a.943.943,0,1,0,0,1.886h6.782a.943.943,0,1,0,0-1.886" transform="translate(-329.743 -181.612)" fill="#e11824"/><path d="M361.939,53.051a.942.942,0,0,0-1.333,0l-4.8,4.8a.942.942,0,1,0,1.333,1.333l4.8-4.8A.942.942,0,0,0,361.939,53.051Z" transform="translate(-295.665 -43.869)" fill="#e11824"/><path d="M186.185,180.136a7.42,7.42,0,1,0,7.431,7.42A7.434,7.434,0,0,0,186.185,180.136Zm0,12.955a5.534,5.534,0,1,1,5.546-5.535,5.547,5.547,0,0,1-5.546,5.535" transform="translate(-148.641 -149.792)"/><path d="M130.191,157.384a.943.943,0,0,0,0-1.174c-.424-.533-10.545-13.059-23.332-13.059h-.042c-.021,0-.041,0-.062,0-12.736.068-22.8,12.524-23.228,13.056a.943.943,0,0,0,0,1.174c.392.492,9.048,11.2,20.433,12.84a13.4,13.4,0,0,0,5.33.068c11.615-1.414,20.5-12.41,20.9-12.909Zm-23.332,11.173a17.993,17.993,0,0,1-2.555-.19,11.8,11.8,0,0,1,2.461-23.329l.066,0a11.8,11.8,0,0,1,2.405,23.355A17.93,17.93,0,0,1,106.859,168.557ZM128.217,156.8a42.194,42.194,0,0,1-10.916,8.846,13.608,13.608,0,0,0-.149-17.774,42.1,42.1,0,0,1,11.065,8.927m-42.717,0a42.2,42.2,0,0,1,10.9-8.839,13.622,13.622,0,0,0-.149,17.6A42.293,42.293,0,0,1,85.5,156.8Z" transform="translate(-69.273 -119.033)"/></g></g></g></svg>