<svg xmlns="http://www.w3.org/2000/svg" xmlns:xlink="http://www.w3.org/1999/xlink" width="80" height="80" viewBox="0 0 80 80"><defs><clipPath id="a"><rect width="75.788" height="51.48" fill="none"/></clipPath><clipPath id="c"><rect width="80" height="80"/></clipPath></defs><g id="b" clip-path="url(#c)"><g transform="translate(2.106 14.894)"><g clip-path="url(#a)"><path d="M75.681,47.994c-1.127-3.177-2.255-6.662-2.46-7.687a19.145,19.145,0,0,0,2.46-9.532A19.447,19.447,0,0,0,48.417,12.941,25.871,25.871,0,0,0,8.649,6.689,25.638,25.638,0,0,0,3.012,37.335c-.205,1.127-1.64,5.534-2.972,9.43A1.263,1.263,0,0,0,.245,47.79a1.113,1.113,0,0,0,.922.41l9.942-1.435A25.171,25.171,0,0,0,24.844,51.48h1.23a25.32,25.32,0,0,0,17.014-6.457,19.423,19.423,0,0,0,23.471,2.153l7.892,2.05a.984.984,0,0,0,1.025-.307.67.67,0,0,0,.2-.924ZM24.946,49.429a23.526,23.526,0,0,1-12.914-4.612.994.994,0,0,0-.922-.1L2.6,45.944c2.87-8.507,2.665-8.815,2.46-9.327A23.375,23.375,0,0,1,2.4,24.625,23.863,23.863,0,0,1,27.2,1.974a24.03,24.03,0,0,1,19.474,11.89,19.517,19.517,0,0,0-9.84,16.911,18.984,18.984,0,0,0,4.92,12.812,23.647,23.647,0,0,1-16.809,5.843Zm41.921-4.2a1.216,1.216,0,0,0-1.025.1,16.88,16.88,0,0,1-9.635,2.87A17.424,17.424,0,1,1,73.63,30.775a18.03,18.03,0,0,1-2.357,8.815c-.307.41-.41.615,1.845,7.278Z" transform="translate(0 0)"/><path d="M264.867,163.265a1.845,1.845,0,1,1-1.845-1.845,1.845,1.845,0,0,1,1.845,1.845" transform="translate(-213.374 -131.876)" fill="#e11824"/><path d="M300.707,163.265a1.845,1.845,0,1,1-1.845-1.845,1.845,1.845,0,0,1,1.845,1.845" transform="translate(-242.655 -131.876)" fill="#e11824"/><path d="M335.427,163.265a1.845,1.845,0,1,1-1.845-1.845,1.845,1.845,0,0,1,1.845,1.845" transform="translate(-271.02 -131.876)" fill="#e11824"/><path d="M91.27,133.585a1.845,1.845,0,1,1-1.845-1.845,1.845,1.845,0,0,1,1.845,1.845" transform="translate(-71.551 -107.628)"/><path d="M127.667,133.585a1.845,1.845,0,1,1-1.845-1.845,1.845,1.845,0,0,1,1.845,1.845" transform="translate(-101.286 -107.628)"/><path d="M161.827,133.585a1.845,1.845,0,1,1-1.845-1.845,1.845,1.845,0,0,1,1.845,1.845" transform="translate(-129.194 -107.628)"/></g></g></g></svg>