<svg xmlns="http://www.w3.org/2000/svg" xmlns:xlink="http://www.w3.org/1999/xlink" width="80" height="80" viewBox="0 0 80 80"><defs><clipPath id="a"><rect width="71.371" height="71.372" fill="none"/></clipPath><clipPath id="c"><rect width="80" height="80"/></clipPath></defs><g id="b" clip-path="url(#c)"><g transform="translate(5.314 4.313)"><g clip-path="url(#a)"><path d="M56.266,35.893l.571-7.567a5.353,5.353,0,1,0-3.565-.183L52.7,35.7a17.787,17.787,0,0,0-11.918,5.338l-7.96-6.367a17.861,17.861,0,0,0,1.889-15.523L55.5,9.5A5.351,5.351,0,1,0,53.638,6.43L33.215,15.914A17.844,17.844,0,1,0,8.449,40.151L6.026,46.434a5.356,5.356,0,1,0,3.2,1.618l2.439-6.326A17.841,17.841,0,0,0,30.59,37.465l7.959,6.367A17.861,17.861,0,0,0,36.2,57.813L23.663,62.5a5.351,5.351,0,1,0,1.314,3.318L37.4,61.174A17.845,17.845,0,1,0,56.265,35.892ZM58.882,3.568A1.784,1.784,0,1,1,57.1,5.352a1.788,1.788,0,0,1,1.784-1.784M7.04,52.331a1.784,1.784,0,1,1-1.1-2.274A1.788,1.788,0,0,1,7.04,52.331Zm17.942-15a14.225,14.225,0,0,1-14.274,0V35.684a7.137,7.137,0,0,1,14.274,0ZM14.277,21.411a3.569,3.569,0,1,1,3.569,3.568,3.571,3.571,0,0,1-3.569-3.568M28.482,34.485a10.707,10.707,0,0,0-5.456-8.168,7.137,7.137,0,1,0-10.362,0,10.713,10.713,0,0,0-5.456,8.168,14.275,14.275,0,1,1,21.275,0ZM20.219,67.7a1.784,1.784,0,1,1,1.094-2.274A1.786,1.786,0,0,1,20.219,67.7M55.313,21.411A1.784,1.784,0,1,1,53.529,23.2a1.788,1.788,0,0,1,1.784-1.784M60.666,65.88a14.222,14.222,0,0,1-14.274,0V64.231a7.137,7.137,0,0,1,14.274,0ZM49.961,49.958a3.569,3.569,0,1,1,3.569,3.569,3.571,3.571,0,0,1-3.569-3.569M64.166,63.03a10.709,10.709,0,0,0-5.456-8.168,7.137,7.137,0,1,0-10.361,0,10.715,10.715,0,0,0-5.456,8.168,14.274,14.274,0,1,1,21.273,0Z" transform="translate(0 0)"/></g></g><circle cx="6" cy="6" r="6" transform="translate(58 4)" fill="#fff"/><path d="M6,3A3,3,0,1,0,9,6,3,3,0,0,0,6,3M6,0A6,6,0,1,1,0,6,6,6,0,0,1,6,0Z" transform="translate(58 4)" fill="#e11824"/><circle cx="6" cy="6" r="6" transform="translate(19 64)" fill="#fff"/><path d="M6,3A3,3,0,1,0,9,6,3,3,0,0,0,6,3M6,0A6,6,0,1,1,0,6,6,6,0,0,1,6,0Z" transform="translate(19 64)" fill="#e11824"/><circle cx="6" cy="6" r="6" transform="translate(4 50)" fill="#fff"/><path d="M6,3A3,3,0,1,0,9,6,3,3,0,0,0,6,3M6,0A6,6,0,1,1,0,6,6,6,0,0,1,6,0Z" transform="translate(4 50)" fill="#e11824"/><circle cx="6" cy="6" r="6" transform="translate(55 22)" fill="#fff"/><path d="M6,3A3,3,0,1,0,9,6,3,3,0,0,0,6,3M6,0A6,6,0,1,1,0,6,6,6,0,0,1,6,0Z" transform="translate(55 22)" fill="#e11824"/></g></svg>