<svg xmlns="http://www.w3.org/2000/svg" xmlns:xlink="http://www.w3.org/1999/xlink" width="80" height="80" viewBox="0 0 80 80"><defs><clipPath id="a"><rect width="55.492" height="67.943" transform="translate(-3 -3)" fill="none" stroke="#000" stroke-width="1"/></clipPath><clipPath id="b"><rect width="19.652" height="37.998" transform="translate(-2 -4)" fill="#e11824" stroke="#e11824" stroke-width="1"/></clipPath><clipPath id="d"><rect width="80" height="80"/></clipPath></defs><g id="c" clip-path="url(#d)"><g transform="translate(15.254 9.028)"><g clip-path="url(#a)"><path d="M7.479,0A7.424,7.424,0,0,0,0,7.369V47.095a.528.528,0,0,0,.066.242l.022.022a.525.525,0,0,0,.066.11C3.735,53.052,8.678,57.5,13.836,61.723h0a.543.543,0,0,0,.11.11l.044.022a.53.53,0,0,0,.286.088H42.013a7.424,7.424,0,0,0,7.479-7.369V7.369A7.424,7.424,0,0,0,42.013,0H7.479Zm0,1.056H42.013a6.348,6.348,0,0,1,6.423,6.313v47.2a6.348,6.348,0,0,1-6.423,6.313H14.8V53.914a7.424,7.424,0,0,0-7.479-7.369H1.055V7.368A6.348,6.348,0,0,1,7.478,1.055ZM1.584,47.6H7.325a6.348,6.348,0,0,1,6.423,6.313v6.313C9.145,56.414,4.836,52.414,1.584,47.6Z"/><path d="M7.479-.5H42.013a7.933,7.933,0,0,1,7.979,7.869v47.2a7.933,7.933,0,0,1-7.979,7.869H14.275a1.032,1.032,0,0,1-.527-.149L13.7,62.27l-.029-.016-.027-.02a1.033,1.033,0,0,1-.17-.158c-2.129-1.744-4.888-4.067-7.429-6.618a46.614,46.614,0,0,1-6.305-7.7,1.025,1.025,0,0,1-.07-.107l-.019-.022-.026-.046A1.033,1.033,0,0,1-.5,47.109V7.369A7.933,7.933,0,0,1,7.479-.5ZM42.013,61.443a6.932,6.932,0,0,0,6.979-6.869V7.369A6.932,6.932,0,0,0,42.013.5H7.4A6.931,6.931,0,0,0,.5,7.369v39.7l.007.007.013.03h6.8a6.939,6.939,0,0,1,4.9,1.988,6.719,6.719,0,0,1,2.023,4.826V61.29l-.819-.678c-4.09-3.388-8.737-7.541-12.216-12.667L.9,47.695c3.561,5.359,8.467,9.721,13.254,13.641l.13.107h27.73ZM13.248,59.159V53.913A5.727,5.727,0,0,0,11.524,49.8a5.945,5.945,0,0,0-4.2-1.7H2.54A61.516,61.516,0,0,0,13.248,59.159ZM7.478.555H42.013a6.939,6.939,0,0,1,4.9,1.988,6.719,6.719,0,0,1,2.023,4.825v47.2A6.719,6.719,0,0,1,46.914,59.4a6.939,6.939,0,0,1-4.9,1.988H14.3V53.914a6.932,6.932,0,0,0-6.979-6.869H.555V7.368A6.719,6.719,0,0,1,2.578,2.543,6.939,6.939,0,0,1,7.478.555ZM42.013,60.387a5.945,5.945,0,0,0,4.2-1.7,5.727,5.727,0,0,0,1.724-4.112V7.369a5.727,5.727,0,0,0-1.724-4.112,5.945,5.945,0,0,0-4.2-1.7H7.389a5.94,5.94,0,0,0-4.11,1.7A5.727,5.727,0,0,0,1.555,7.368V46.045H7.324A7.933,7.933,0,0,1,15.3,53.914v6.473Z"/></g></g><g transform="translate(32.861 24.001)"><g clip-path="url(#b)"><path d="M7.917,0a7.405,7.405,0,0,0-6.1,2.881A9.278,9.278,0,0,0,0,8.512H0a.446.446,0,1,0,.892,0A8.438,8.438,0,0,1,2.527,3.439,6.448,6.448,0,0,1,7.917.892,6.527,6.527,0,0,1,14.4,5.242a6.83,6.83,0,0,1-2.379,7.565,31.539,31.539,0,0,0-3.067,2.6,5,5,0,0,0-1.524,3.606v.018c-.021,3.3-.037,3.959-.037,3.959h0a.446.446,0,1,0,.892.037s.017-.674.037-4.015V19a3.988,3.988,0,0,1,1.282-2.974A32.756,32.756,0,0,1,12.6,13.494a7.779,7.779,0,0,0,2.658-8.55A7.48,7.48,0,0,0,7.917,0Z" transform="translate(0)" fill="#e11824"/><path d="M7.917-.5a8.559,8.559,0,0,1,5,1.523,7.629,7.629,0,0,1,2.815,3.759A7.845,7.845,0,0,1,15.844,9.5a8.881,8.881,0,0,1-2.923,4.374c-.314.259-.632.509-.939.75a18.279,18.279,0,0,0-2.008,1.735A3.491,3.491,0,0,0,8.826,18.98v.033c-.021,3.311-.037,4-.038,4.027v.005a.946.946,0,0,1-1.868.176l-.028-.028,0-.215c0-.007.017-.7.037-3.949V19.02a5.439,5.439,0,0,1,1.659-3.954,19.658,19.658,0,0,1,2.242-1.951c.289-.227.589-.462.872-.7a6.988,6.988,0,0,0,2.318-3.432A5.967,5.967,0,0,0,13.931,5.4,5.778,5.778,0,0,0,11.825,2.56,6.656,6.656,0,0,0,7.917,1.392a5.959,5.959,0,0,0-4.993,2.35A7.944,7.944,0,0,0,1.392,8.508a.947.947,0,0,1-.946.958A.947.947,0,0,1-.5,8.506V8.488A9.766,9.766,0,0,1,1.424,2.577,7.882,7.882,0,0,1,7.417-.487V-.5Z" transform="translate(0)" fill="#e11824"/><path d="M65.754,263.9a.985.985,0,1,0,1,.985,1.006,1.006,0,0,0-1-.985" transform="translate(-57.873 -235.873)" fill="#e11824"/><path d="M65.754,266.371a1.485,1.485,0,1,1,1.5-1.485A1.514,1.514,0,0,1,65.754,266.371Zm0-1.97a.485.485,0,1,0,.5.485A.507.507,0,0,0,65.754,264.4Z" transform="translate(-57.873 -235.873)" fill="#e11824"/><path d="M73.417,272.3a.093.093,0,1,1-.093.093.086.086,0,0,1,.093-.093" transform="translate(-65.537 -243.38)" fill="#e11824"/><path d="M73.417,272.986a.593.593,0,1,1,.593-.593A.587.587,0,0,1,73.417,272.986Z" transform="translate(-65.537 -243.38)" fill="#e11824"/></g></g></g></svg>