<svg xmlns="http://www.w3.org/2000/svg" xmlns:xlink="http://www.w3.org/1999/xlink" width="80" height="80" viewBox="0 0 80 80"><defs><clipPath id="a"><rect width="77.983" height="66.245" fill="none"/></clipPath><clipPath id="c"><rect width="80" height="80"/></clipPath></defs><g id="b" clip-path="url(#c)"><g transform="translate(-0.992)"><g transform="translate(2 7.838)"><g clip-path="url(#a)"><path d="M75.11,0H2.873A2.909,2.909,0,0,0,0,2.874V49.335a2.909,2.909,0,0,0,2.873,2.873H36.119v8.209H24.3a1.471,1.471,0,0,0-1.477,1.477v2.873A1.471,1.471,0,0,0,24.3,66.245H53.6a1.471,1.471,0,0,0,1.477-1.477V61.812A1.471,1.471,0,0,0,53.6,60.335H41.865V52.126H75.11a2.909,2.909,0,0,0,2.873-2.873V2.873A2.909,2.909,0,0,0,75.11,0ZM72.238,46.462H5.747V5.746H72.238Z"/></g></g><path d="M149.483,80.727h23.159a1.241,1.241,0,0,0,1.24-1.24,12.831,12.831,0,0,0-8.169-11.936,7.673,7.673,0,1,0-9.305,0,12.833,12.833,0,0,0-8.167,11.935,1.241,1.241,0,0,0,1.241,1.24Zm6.387-19.254a5.193,5.193,0,1,1,5.193,5.192,5.2,5.2,0,0,1-5.193-5.192m5.193,7.674a10.353,10.353,0,0,1,10.265,9.1H150.8a10.354,10.354,0,0,1,10.265-9.1Z" transform="translate(-120.242 -33.826)" fill="#e11824"/><path d="M59.958,56.275a1.241,1.241,0,0,0,1.24-1.24V53.794H64.92a1.24,1.24,0,1,0,0-2.481H60.934a2.219,2.219,0,0,0-2.217,2.217v1.505A1.241,1.241,0,0,0,59.958,56.275Z" transform="translate(-46.627 -33.706)" fill="#e11824"/><path d="M59.959,99.421a1.241,1.241,0,0,0,1.24-1.24v-.827a1.24,1.24,0,0,0-2.481,0v.827a1.241,1.241,0,0,0,1.241,1.24" transform="translate(-46.627 -71.89)" fill="#e11824"/><path d="M372.166,208.337a1.241,1.241,0,0,0-1.24,1.24v1.241H367.2a1.24,1.24,0,1,0,0,2.481h3.987a2.219,2.219,0,0,0,2.217-2.217v-1.505A1.241,1.241,0,0,0,372.166,208.337Z" transform="translate(-304.492 -163.538)" fill="#e11824"/><path d="M400.805,174.736a1.241,1.241,0,0,0-1.24,1.241v.827a1.24,1.24,0,1,0,2.481,0v-.827a1.241,1.241,0,0,0-1.24-1.241" transform="translate(-333.131 -134.9)" fill="#e11824"/></g></g></svg>