<svg xmlns="http://www.w3.org/2000/svg" xmlns:xlink="http://www.w3.org/1999/xlink" width="80" height="80" viewBox="0 0 80 80"><defs><clipPath id="a"><rect width="69.248" height="76.263" fill="none"/></clipPath><clipPath id="c"><rect width="80" height="80"/></clipPath></defs><g id="b" clip-path="url(#c)"><g transform="translate(6 2)"><g clip-path="url(#a)"><path d="M66.4,29.554c15.04,0,20.908,3.89,21,3.954l.009,0c.035.024.073.042.109.063s.066.039.1.055a1.453,1.453,0,0,0,.145.056c.028.01.055.019.084.027s.047.016.071.021a1.479,1.479,0,0,0,.317.037h.007a1.439,1.439,0,0,0,.318-.037c.025-.005.049-.016.074-.022s.055-.016.082-.026a1.47,1.47,0,0,0,.145-.056c.034-.016.066-.035.1-.054s.08-.042.116-.068l.01,0c.056-.04,5.746-3.949,21-3.949a1.464,1.464,0,0,0,1.464-1.464V1.465A1.464,1.464,0,0,0,110.084,0C97.024,0,90.433,2.808,88.241,3.985,86.051,2.807,79.459,0,66.4,0a1.464,1.464,0,0,0-1.464,1.464V28.089A1.465,1.465,0,0,0,66.4,29.554ZM89.7,6.518c1.76-.936,7.43-3.382,18.914-3.576v23.7C98.6,26.8,92.652,28.643,89.7,29.913ZM67.862,2.942C79.247,3.139,85,5.6,86.776,6.526V29.914c-2.947-1.271-8.891-3.11-18.914-3.275Z" transform="translate(-53.616 -0.001)"/><path d="M112.555,42.978a81.369,81.369,0,0,0-9.839-1.237,1.464,1.464,0,1,0-.221,2.92,78.625,78.625,0,0,1,9.418,1.173,1.464,1.464,0,1,0,.642-2.857Z" transform="translate(-83.51 -34.461)"/><path d="M111.038,78.879a81.248,81.248,0,0,0-9.84-1.237,1.464,1.464,0,1,0-.221,2.92,78.486,78.486,0,0,1,9.419,1.173,1.464,1.464,0,1,0,.643-2.857Z" transform="translate(-82.256 -64.104)"/><path d="M111.038,114.779a81.173,81.173,0,0,0-9.84-1.237,1.464,1.464,0,1,0-.221,2.92,78.706,78.706,0,0,1,9.419,1.174,1.464,1.464,0,1,0,.643-2.857Z" transform="translate(-82.256 -93.746)"/><path d="M225.545,45.878a1.453,1.453,0,0,0,.322-.036,78.606,78.606,0,0,1,9.418-1.173,1.464,1.464,0,1,0-.221-2.92,81.348,81.348,0,0,0-9.839,1.237,1.464,1.464,0,0,0,.32,2.893Z" transform="translate(-185.02 -34.467)"/><path d="M236.571,77.647a81.266,81.266,0,0,0-9.84,1.237,1.464,1.464,0,1,0,.642,2.857,78.5,78.5,0,0,1,9.419-1.173,1.464,1.464,0,0,0-.221-2.921Z" transform="translate(-186.263 -64.108)"/><path d="M236.571,113.548a81.471,81.471,0,0,0-9.84,1.237,1.464,1.464,0,1,0,.642,2.857,78.725,78.725,0,0,1,9.419-1.174,1.464,1.464,0,1,0-.221-2.92Z" transform="translate(-186.263 -93.751)"/><path d="M27.471,129.71a1.953,1.953,0,1,1-1.952-1.952,1.952,1.952,0,0,1,1.952,1.952" transform="translate(-19.458 -105.487)" fill="#e11824"/><path d="M3.9,165.887a1.952,1.952,0,1,1-1.952-1.953A1.952,1.952,0,0,1,3.9,165.887" transform="translate(0 -135.357)" fill="#e11824"/><path d="M16.271,206.63a1.953,1.953,0,1,1-1.953-1.952,1.953,1.953,0,0,1,1.953,1.952" transform="translate(-10.21 -168.999)" fill="#e11824"/><path d="M355.191,129.71a1.953,1.953,0,1,1-1.953-1.952,1.952,1.952,0,0,1,1.953,1.952" transform="translate(-290.05 -105.487)" fill="#e11824"/><path d="M378.754,165.887a1.952,1.952,0,1,1-1.952-1.953,1.953,1.953,0,0,1,1.952,1.953" transform="translate(-309.506 -135.357)" fill="#e11824"/><path d="M366.391,206.63a1.953,1.953,0,1,1-1.952-1.952,1.953,1.953,0,0,1,1.952,1.952" transform="translate(-299.298 -168.999)" fill="#e11824"/><path d="M54.272,229.705a6.833,6.833,0,1,0-6.833-6.833A6.841,6.841,0,0,0,54.272,229.705Zm0-10.738a3.9,3.9,0,1,1-3.9,3.9,3.909,3.909,0,0,1,3.9-3.9" transform="translate(-39.169 -178.379)"/><path d="M271.418,222.871a6.833,6.833,0,1,0,6.833-6.833,6.841,6.841,0,0,0-6.833,6.833m10.738,0a3.9,3.9,0,1,1-3.9-3.9,3.909,3.909,0,0,1,3.9,3.9" transform="translate(-224.105 -178.378)"/><path d="M152.178,234.248a8.1,8.1,0,1,0,8.1-8.1,8.106,8.106,0,0,0-8.1,8.1m13.264,0a5.168,5.168,0,1,1-5.168-5.168,5.174,5.174,0,0,1,5.168,5.168" transform="translate(-125.65 -186.729)"/><path d="M64.813,310.3H64.66a12.806,12.806,0,0,0-11.734,7.712,14.989,14.989,0,0,0-15.422,0A12.807,12.807,0,0,0,25.77,310.3h-.153a12.806,12.806,0,0,0-12.792,12.792v3.478a1.464,1.464,0,0,0,2.928,0v-3.478a9.875,9.875,0,0,1,9.863-9.863h.153a9.872,9.872,0,0,1,9.294,6.591A15.08,15.08,0,0,0,30.084,331a1.464,1.464,0,0,0,2.928,0,12.136,12.136,0,0,1,2.661-7.586,12.313,12.313,0,0,1,2.689-2.5,12.172,12.172,0,0,1,13.705,0,12.3,12.3,0,0,1,2.73,2.558A12.134,12.134,0,0,1,57.417,331a1.464,1.464,0,1,0,2.928,0,15.08,15.08,0,0,0-4.979-11.188,9.871,9.871,0,0,1,9.293-6.591h.153a9.874,9.874,0,0,1,9.863,9.863v3.478a1.464,1.464,0,0,0,2.928,0v-3.478A12.8,12.8,0,0,0,64.813,310.3Z" transform="translate(-10.589 -256.206)"/></g></g></g></svg>