<svg xmlns="http://www.w3.org/2000/svg" xmlns:xlink="http://www.w3.org/1999/xlink" width="80" height="80" viewBox="0 0 80 80"><defs><clipPath id="a"><rect width="77.983" height="66.245" fill="none"/></clipPath><clipPath id="c"><rect width="80" height="80"/></clipPath></defs><g id="b" clip-path="url(#c)"><g transform="translate(1.008 7.838)" clip-path="url(#a)"><path d="M75.11,0H2.873A2.909,2.909,0,0,0,0,2.874V49.335a2.909,2.909,0,0,0,2.873,2.873H36.119v8.209H24.3a1.471,1.471,0,0,0-1.477,1.477v2.873A1.471,1.471,0,0,0,24.3,66.245H53.6a1.471,1.471,0,0,0,1.477-1.477V61.812A1.471,1.471,0,0,0,53.6,60.335H41.865V52.126H75.11a2.909,2.909,0,0,0,2.873-2.873V2.873A2.909,2.909,0,0,0,75.11,0ZM72.238,46.462H5.747V5.746H72.238Z"/><path d="M211.974,124.968h0a2.4,2.4,0,0,1-2.413-2.388V111.392a2.425,2.425,0,0,1,2.433-2.412,2.477,2.477,0,0,1,1.254.345l.016.01,9.071,5.569a2.4,2.4,0,0,1,0,4.106l-.007,0-9.045,5.553A2.344,2.344,0,0,1,211.974,124.968Zm.02-13.988a.425.425,0,0,0-.433.412v11.187a.414.414,0,0,0,.413.388h0a.345.345,0,0,0,.2-.065l.043-.028,9.06-5.562a.4.4,0,0,0,0-.711l-9.05-5.556A.467.467,0,0,0,211.994,110.98Z" transform="translate(-177.125 -90.845)" fill="#e11824"/></g></g></svg>