<svg width="28" height="30" viewBox="0 0 28 30" fill="none" xmlns="http://www.w3.org/2000/svg">
<rect y="1" width="28" height="28" rx="2" fill="#303030"/>
<path d="M3.032 19.536H7.568V24H3.032V19.536ZM25.0248 24H20.2488L18.0408 18.312C17.7848 17.672 17.1848 17.352 16.2408 17.352H14.6088V24H10.1688V6.912H18.1128C20.1768 6.912 21.7288 7.36 22.7688 8.256C23.8088 9.136 24.3288 10.4 24.3288 12.048C24.3288 13.2 24.0168 14.2 23.3928 15.048C22.7848 15.88 21.9208 16.472 20.8008 16.824C21.2808 16.92 21.7128 17.144 22.0968 17.496C22.4808 17.848 22.7848 18.32 23.0088 18.912L25.0248 24ZM17.3928 13.992C18.3528 13.992 19.0488 13.848 19.4808 13.56C19.9128 13.256 20.1288 12.792 20.1288 12.168C20.1288 11.512 19.9128 11.04 19.4808 10.752C19.0648 10.464 18.3688 10.32 17.3928 10.32H14.5608V13.992H17.3928Z" fill="white"/>
</svg>
