<svg width="226" height="30" viewBox="0 0 226 30" fill="none" xmlns="http://www.w3.org/2000/svg">
<path d="M15.336 6.912H18.84V24H14.904L14.88 16.176L11.64 24H8.784L5.52 16.272V24H1.608V6.912H5.136L10.248 18.576L15.336 6.912ZM21.9735 24V6.912H26.4855V24H21.9735ZM44.4233 24H39.6473L37.4393 18.312C37.1833 17.672 36.5833 17.352 35.6393 17.352H34.0073V24H29.5673V6.912H37.5113C39.5753 6.912 41.1273 7.36 42.1673 8.256C43.2073 9.136 43.7273 10.4 43.7273 12.048C43.7273 13.2 43.4153 14.2 42.7913 15.048C42.1833 15.88 41.3193 16.472 40.1993 16.824C40.6793 16.92 41.1113 17.144 41.4953 17.496C41.8793 17.848 42.1833 18.32 42.4073 18.912L44.4233 24ZM36.7913 13.992C37.7513 13.992 38.4473 13.848 38.8793 13.56C39.3113 13.256 39.5273 12.792 39.5273 12.168C39.5273 11.512 39.3113 11.04 38.8793 10.752C38.4633 10.464 37.7673 10.32 36.7913 10.32H33.9593V13.992H36.7913ZM46.7001 6.912H53.6841C55.5721 6.912 57.1961 7.256 58.5561 7.944C59.9321 8.616 60.9801 9.592 61.7001 10.872C62.4361 12.152 62.8041 13.672 62.8041 15.432C62.8041 17.208 62.4441 18.744 61.7241 20.04C61.0041 21.32 59.9561 22.304 58.5801 22.992C57.2201 23.664 55.5881 24 53.6841 24H46.7001V6.912ZM53.3721 20.4C55.0361 20.4 56.2761 19.992 57.0921 19.176C57.9241 18.344 58.3401 17.096 58.3401 15.432C58.3401 12.152 56.6841 10.512 53.3721 10.512H51.2121V20.4H53.3721ZM77.9664 24L76.4544 20.472H68.8704L67.3584 24H62.8464L70.8384 6.912H74.3904L82.4064 24H77.9664ZM70.3344 17.088H74.9904L72.6624 11.688L70.3344 17.088ZM84.9932 24V10.56H79.9052V6.912H94.6412V10.56H89.5532V24H84.9932ZM107.263 24L105.751 20.472H98.1673L96.6553 24H92.1433L100.135 6.912H103.687L111.703 24H107.263ZM99.6313 17.088H104.287L101.959 11.688L99.6313 17.088Z" fill="#E11824"/>
<rect x="114" y="1" width="28" height="28" rx="2" fill="#303030"/>
<path d="M117.032 19.536H121.568V24H117.032V19.536ZM139.025 24H134.249L132.041 18.312C131.785 17.672 131.185 17.352 130.241 17.352H128.609V24H124.169V6.912H132.113C134.177 6.912 135.729 7.36 136.769 8.256C137.809 9.136 138.329 10.4 138.329 12.048C138.329 13.2 138.017 14.2 137.393 15.048C136.785 15.88 135.921 16.472 134.801 16.824C135.281 16.92 135.713 17.144 136.097 17.496C136.481 17.848 136.785 18.32 137.009 18.912L139.025 24ZM131.393 13.992C132.353 13.992 133.049 13.848 133.481 13.56C133.913 13.256 134.129 12.792 134.129 12.168C134.129 11.512 133.913 11.04 133.481 10.752C133.065 10.464 132.369 10.32 131.393 10.32H128.561V13.992H131.393Z" fill="white"/>
<path d="M144.536 24V6.912H156.728V10.368H148.928V13.584H156.224V17.04H148.928V20.544H156.728V24H144.536ZM159.02 6.912H167.156C169.108 6.912 170.62 7.384 171.692 8.328C172.764 9.256 173.3 10.52 173.3 12.12C173.3 13.704 172.756 14.968 171.668 15.912C170.58 16.856 169.076 17.328 167.156 17.328H163.532V24H159.02V6.912ZM166.556 13.968C168.252 13.968 169.1 13.368 169.1 12.168C169.1 11.56 168.892 11.104 168.476 10.8C168.076 10.48 167.436 10.32 166.556 10.32H163.532V13.968H166.556ZM183.633 24.216C181.889 24.216 180.369 23.864 179.073 23.16C177.777 22.44 176.777 21.416 176.073 20.088C175.385 18.76 175.041 17.208 175.041 15.432C175.041 13.656 175.393 12.112 176.097 10.8C176.801 9.488 177.793 8.48 179.073 7.776C180.369 7.056 181.889 6.696 183.633 6.696C185.377 6.696 186.889 7.056 188.169 7.776C189.465 8.48 190.457 9.488 191.145 10.8C191.833 12.112 192.177 13.656 192.177 15.432C192.177 17.208 191.833 18.76 191.145 20.088C190.457 21.416 189.465 22.44 188.169 23.16C186.889 23.864 185.377 24.216 183.633 24.216ZM183.633 20.784C184.913 20.784 185.913 20.328 186.633 19.416C187.369 18.504 187.737 17.176 187.737 15.432C187.737 13.704 187.369 12.392 186.633 11.496C185.913 10.584 184.913 10.128 183.633 10.128C182.353 10.128 181.353 10.576 180.633 11.472C179.913 12.368 179.553 13.688 179.553 15.432C179.553 17.192 179.913 18.528 180.633 19.44C181.353 20.336 182.353 20.784 183.633 20.784ZM209.665 24H204.889L202.681 18.312C202.425 17.672 201.825 17.352 200.881 17.352H199.249V24H194.809V6.912H202.753C204.817 6.912 206.369 7.36 207.409 8.256C208.449 9.136 208.969 10.4 208.969 12.048C208.969 13.2 208.657 14.2 208.033 15.048C207.425 15.88 206.561 16.472 205.441 16.824C205.921 16.92 206.353 17.144 206.737 17.496C207.121 17.848 207.425 18.32 207.649 18.912L209.665 24ZM202.033 13.992C202.993 13.992 203.689 13.848 204.121 13.56C204.553 13.256 204.769 12.792 204.769 12.168C204.769 11.512 204.553 11.04 204.121 10.752C203.705 10.464 203.009 10.32 202.033 10.32H199.201V13.992H202.033ZM215.314 24V10.56H210.226V6.912H224.962V10.56H219.874V24H215.314Z" fill="#E11824"/>
</svg>
