<svg width="33" height="33" viewBox="0 0 33 33" fill="none" xmlns="http://www.w3.org/2000/svg">
<path d="M5.02567 27.4129V12.6964H9.92411V27.4129H5.02567ZM10.2422 8.15848C10.2422 9.55803 9.18192 10.7031 7.46429 10.7031H7.44308C5.78906 10.7031 4.72879 9.55803 4.72879 8.15848C4.72879 6.71652 5.83147 5.61384 7.5067 5.61384C9.18192 5.61384 10.221 6.71652 10.2422 8.15848ZM22.6473 27.4129V19.5458C22.6473 17.5525 21.9475 16.2165 20.1875 16.2165C18.8304 16.2165 18.0246 17.1283 17.6641 17.9978C17.5368 18.3158 17.5156 18.7612 17.5156 19.1853V27.4129H12.6172C12.6808 14.0748 12.6172 12.6964 12.6172 12.6964H17.5156V14.8382H17.4732C18.1094 13.8203 19.2757 12.3571 21.9051 12.3571C25.1283 12.3571 27.5458 14.4565 27.5458 18.9732V27.4129H22.6473ZM32.5714 6.25C32.5714 2.87835 29.8359 0.142856 26.4643 0.142856H6.10714C2.73549 0.142856 0 2.87835 0 6.25V26.6071C0 29.9788 2.73549 32.7143 6.10714 32.7143H26.4643C29.8359 32.7143 32.5714 29.9788 32.5714 26.6071V6.25Z" fill="#E11824"/>
</svg>
