<svg width="33" height="33" viewBox="0 0 33 33" fill="none" xmlns="http://www.w3.org/2000/svg">
<path d="M26.4643 0.142856H6.10714C2.73549 0.142856 0 2.87835 0 6.25V26.6071C0 29.9788 2.73549 32.7143 6.10714 32.7143H26.4643C29.8359 32.7143 32.5714 29.9788 32.5714 26.6071V6.25C32.5714 2.87835 29.8359 0.142856 26.4643 0.142856ZM27.1429 22.5357C27.1429 23.6596 26.231 24.5714 25.1071 24.5714H7.46429C6.3404 24.5714 5.42857 23.6596 5.42857 22.5357V13.2902C5.91629 13.6507 6.29799 14.1172 6.78571 14.4353C8.75781 15.7924 10.8359 17.0011 12.808 18.3583C13.8047 19.058 15.0346 19.8214 16.2857 19.8214C17.5368 19.8214 18.7667 19.058 19.7634 18.3583C21.7355 17.0011 23.7924 15.7712 25.7857 14.4565C26.2946 14.1384 26.74 13.7355 27.1429 13.2902V22.5357ZM27.1429 10.385C27.1429 11.4453 25.8917 12.7176 25.0647 13.269C23.1775 14.5201 21.2902 15.7288 19.4029 16.9587C18.5971 17.4888 17.2612 18.4643 16.2857 18.4643C15.3103 18.4643 13.9743 17.4888 13.1685 16.9587C11.3025 15.7288 9.37277 14.5625 7.5067 13.3114C6.61607 12.7176 5.42857 11.4665 5.42857 10.3214C5.42857 9.19754 6.3404 8.28571 7.46429 8.28571H25.1071C26.2946 8.28571 27.1429 9.23995 27.1429 10.385Z" fill="#E11824"/>
</svg>
